<?xml version="1.0" standalone="no"?>
<!DOCTYPE svg PUBLIC "-//W3C//DTD SVG 20010904//EN"
 "http://www.w3.org/TR/2001/REC-SVG-20010904/DTD/svg10.dtd">
<svg version="1.0" xmlns="http://www.w3.org/2000/svg"
 width="512.000000pt" height="512.000000pt" viewBox="0 0 512.000000 512.000000"
 preserveAspectRatio="xMidYMid meet">

<g transform="translate(0.000000,512.000000) scale(0.100000,-0.100000)"
fill="#fbd42c" stroke="none">
<path d="M2353 5096 c-28 -24 -28 -24 -31 -170 l-3 -146 -730 0 c-751 0 -756
0 -786 -39 -10 -12 -12 -300 -13 -1268 l0 -1251 -106 -4 c-102 -3 -107 -4
-130 -31 -24 -28 -24 -32 -24 -218 0 -198 7 -238 45 -253 9 -3 179 -6 377 -6
291 0 359 -2 355 -13 -3 -7 -180 -316 -394 -687 -215 -371 -397 -689 -406
-707 -38 -73 -20 -95 178 -209 164 -95 198 -106 233 -77 13 10 240 394 505
853 l482 835 207 3 208 2 2 -660 3 -659 23 -23 c22 -22 30 -23 214 -26 203 -3
236 2 257 41 8 16 12 207 14 672 l2 650 188 0 188 0 480 -830 c263 -457 490
-840 504 -852 15 -13 36 -23 49 -23 27 0 333 172 359 202 40 47 37 52 -388
789 -223 386 -405 705 -405 710 0 5 172 9 383 9 l384 0 24 26 c23 25 24 31 27
202 5 267 -4 282 -168 282 l-90 0 0 1249 0 1250 -24 28 -24 28 -746 3 -746 2
0 139 c0 77 -3 147 -6 156 -15 38 -55 45 -253 45 -186 0 -190 0 -218 -24z
m307 -231 l0 -85 -85 0 -85 0 0 85 0 85 85 0 85 0 0 -85z m1540 -1450 l0
-1195 -1620 0 -1620 0 0 1195 0 1195 1620 0 1620 0 0 -1195z m258 -1452 l3
-83 -1881 0 -1880 0 0 85 0 85 1878 -2 1877 -3 3 -82z m-2758 -263 c0 -6 -733
-1284 -856 -1492 -5 -8 -144 72 -144 83 0 5 183 327 407 714 l407 705 93 0
c53 0 93 -4 93 -10z m960 -590 l0 -600 -85 0 -85 0 0 593 c0 327 3 597 7 600
3 4 42 7 85 7 l78 0 0 -600z m948 588 c12 -16 800 -1382 807 -1400 4 -9 -18
-27 -59 -51 -36 -20 -69 -37 -75 -37 -7 0 -855 1454 -869 1491 -6 15 184 11
196 -3z"/>
</g>
</svg>
