<?xml version="1.0" standalone="no"?>
<!DOCTYPE svg PUBLIC "-//W3C//DTD SVG 20010904//EN"
 "http://www.w3.org/TR/2001/REC-SVG-20010904/DTD/svg10.dtd">
<svg version="1.0" xmlns="http://www.w3.org/2000/svg"
 width="512.000000pt" height="512.000000pt" viewBox="0 0 512.000000 512.000000"
 preserveAspectRatio="xMidYMid meet">

<g transform="translate(0.000000,512.000000) scale(0.100000,-0.100000)"
fill="#fbd42c" stroke="none">
<path d="M2250 5102 c-64 -35 -89 -92 -90 -204 l0 -57 -42 -11 c-24 -6 -61
-16 -83 -21 -92 -24 -248 -84 -367 -144 l-128 -63 -37 19 c-34 17 -62 19 -305
19 -301 0 -316 -3 -364 -66 -28 -37 -29 -40 -32 -182 -4 -179 8 -256 55 -343
l36 -66 -51 -85 c-93 -153 -162 -320 -211 -508 l-28 -105 -124 -5 c-138 -7
-172 -18 -211 -72 -21 -31 -23 -44 -26 -195 -4 -180 8 -253 55 -332 53 -91
163 -170 260 -186 47 -7 40 5 77 -140 39 -153 108 -320 192 -466 l46 -80 -22
-21 c-41 -39 -50 -78 -50 -226 0 -221 26 -307 120 -402 149 -148 385 -154 540
-14 l42 38 45 -25 c24 -13 47 -27 49 -31 3 -4 -96 -225 -220 -490 l-224 -483
-277 -5 -277 -5 -20 -25 c-24 -30 -18 -77 13 -102 20 -17 129 -18 1969 -18
1888 0 1948 1 1971 19 28 23 32 83 6 109 -16 15 -49 18 -289 22 l-271 5 -83
180 c-104 223 -134 254 -198 204 -40 -32 -34 -67 44 -232 39 -82 70 -151 70
-153 0 -3 -23 -4 -51 -2 l-51 3 -204 440 -204 440 40 19 c22 11 41 18 43 15 2
-2 41 -86 88 -187 89 -195 114 -232 152 -232 37 0 77 36 77 69 0 16 -41 115
-90 220 -50 106 -87 197 -84 202 3 5 23 18 45 30 l40 20 49 -44 c159 -143 389
-137 540 13 93 94 120 181 120 394 0 149 -9 192 -47 231 l-27 27 27 46 c91
155 177 355 212 492 38 150 31 138 78 145 97 16 207 95 260 186 47 79 59 152
55 332 -3 151 -5 164 -26 195 -39 54 -73 65 -211 72 l-124 5 -28 105 c-49 188
-118 355 -211 508 l-51 85 36 66 c47 87 59 164 55 343 -3 142 -4 145 -32 182
-48 63 -63 66 -364 66 -244 0 -271 -2 -305 -19 l-37 -19 -125 63 c-110 55
-327 135 -451 165 l-41 10 -5 83 c-6 95 -23 135 -70 169 -32 23 -38 23 -318
26 -263 2 -288 1 -320 -16z m558 -179 l3 -43 -250 0 -251 0 0 38 c0 21 3 42 7
46 4 3 115 5 247 4 l241 -3 3 -42z m-9 -240 c-13 -66 -51 -126 -105 -161 -146
-97 -340 -13 -373 161 l-8 47 247 0 247 0 -8 -47z m-624 -40 c20 -111 99 -214
207 -268 39 -19 77 -35 84 -35 12 0 14 -47 12 -282 l-3 -282 -72 -12 c-132
-22 -244 -69 -362 -151 l-64 -45 -226 226 -225 225 21 43 c35 72 43 117 43
258 l0 136 73 39 c107 59 226 111 330 144 167 53 173 53 182 4z m950 -4 c106
-33 225 -85 333 -144 l72 -39 0 -136 c0 -141 8 -186 43 -258 l21 -43 -225
-225 -225 -225 -80 54 c-99 66 -214 115 -319 135 -44 8 -86 16 -92 18 -20 5
-19 564 1 564 7 0 45 16 84 35 108 55 187 157 208 269 7 38 7 38 46 32 21 -4
81 -20 133 -37z m-1685 -194 l0 -45 -245 0 -245 0 0 45 0 45 245 0 245 0 0
-45z m2730 0 l0 -45 -245 0 -245 0 0 45 0 45 245 0 245 0 0 -45z m-2730 -227
c-1 -68 -62 -158 -133 -195 -17 -8 -58 -18 -92 -21 -114 -9 -217 61 -249 169
-9 29 -16 59 -16 66 0 10 49 13 245 13 l245 0 0 -32z m2730 19 c0 -7 -7 -37
-16 -66 -32 -108 -135 -178 -249 -169 -34 3 -75 13 -92 21 -71 37 -132 127
-133 195 l0 32 245 0 c196 0 245 -3 245 -13z m-2522 -550 l224 -224 -54 -79
c-66 -97 -115 -213 -136 -319 -8 -44 -16 -86 -18 -92 -3 -10 -75 -13 -318 -13
l-314 0 -4 109 c-2 93 -6 114 -24 138 -36 47 -79 66 -166 71 l-80 5 7 36 c23
123 168 466 233 548 l17 22 60 -21 c83 -28 198 -22 275 14 30 15 60 27 65 27
6 1 111 -100 233 -222z m2118 196 c82 -37 195 -43 279 -15 l60 21 17 -22 c65
-82 210 -425 233 -548 l7 -36 -80 -5 c-87 -5 -130 -24 -166 -71 -18 -24 -22
-45 -24 -138 l-4 -109 -314 0 c-243 0 -315 3 -318 13 -2 6 -10 48 -18 92 -20
105 -69 220 -135 319 l-54 80 223 223 c123 123 226 223 229 223 4 0 33 -12 65
-27z m-1286 -461 l0 -198 -56 -24 -56 -23 -141 141 -141 141 25 20 c64 55 268
139 342 140 l27 1 0 -198z m265 183 c66 -17 226 -93 264 -126 l25 -20 -141
-141 -141 -141 -56 23 -56 24 0 198 0 198 23 0 c12 0 50 -7 82 -15z m-621
-394 l139 -139 -23 -56 -24 -56 -198 0 -198 0 0 23 c0 39 29 139 61 207 29 63
89 159 99 160 3 0 68 -63 144 -139z m1053 91 c62 -91 123 -250 123 -319 l0
-23 -198 0 -198 0 -24 56 -23 56 139 139 c76 76 141 139 144 139 3 0 19 -22
37 -48z m-2297 -217 l0 -45 -245 0 -245 0 0 38 c0 21 3 42 7 45 3 4 114 7 245
7 l238 0 0 -45z m3848 -2 l3 -43 -245 0 -246 0 0 45 0 45 243 -2 242 -3 3 -42z
m-2056 -38 c46 -30 88 -110 88 -166 0 -21 -12 -60 -28 -90 -22 -43 -38 -59
-81 -81 -31 -16 -69 -28 -91 -28 -22 0 -60 12 -91 28 -43 22 -59 38 -81 81
-34 65 -35 110 -4 177 24 52 64 89 114 105 47 15 130 3 174 -26z m-1795 -200
c-12 -81 -65 -151 -142 -186 -50 -23 -142 -25 -193 -3 -74 30 -135 110 -148
193 l-7 41 248 0 248 0 -6 -45z m3849 4 c-13 -83 -74 -163 -148 -193 -51 -22
-143 -20 -193 3 -77 35 -130 105 -142 186 l-6 45 248 0 248 0 -7 -41z m-3062
-55 c3 -9 6 -26 6 -38 0 -41 41 -180 74 -251 18 -38 54 -101 80 -139 l48 -69
-233 -233 -234 -234 -183 0 -182 0 -37 58 c-96 149 -183 345 -223 502 -11 43
-23 85 -26 93 -4 11 8 21 42 36 61 28 127 81 162 134 26 39 36 58 61 130 l11
27 314 0 c277 0 315 -2 320 -16z m575 -45 l23 -62 -138 -138 c-76 -77 -141
-139 -144 -139 -8 1 -65 89 -90 140 -33 66 -58 142 -65 204 l-7 56 198 0 199
0 24 -61z m1056 5 c-7 -62 -32 -138 -65 -204 -25 -51 -82 -139 -90 -140 -3 0
-68 62 -144 139 l-138 138 23 62 24 61 199 0 198 0 -7 -56z m818 -4 c39 -106
113 -187 211 -231 34 -15 46 -25 42 -36 -3 -8 -15 -49 -26 -91 -37 -145 -113
-320 -202 -464 l-60 -98 -181 0 -182 0 -234 234 -233 233 48 69 c26 38 62 101
80 139 33 71 74 210 74 251 0 57 -15 55 327 52 l315 -3 21 -55z m-1608 -214
c28 -8 43 -15 34 -15 -26 -2 -43 -29 -120 -194 l-73 -159 -30 6 c-17 4 -34 10
-39 15 -6 6 14 60 48 133 32 67 68 147 81 176 13 28 29 52 36 52 7 0 36 -7 63
-14z m268 -164 c50 -108 77 -176 71 -182 -5 -5 -23 -12 -40 -16 l-30 -6 -73
159 c-75 164 -93 192 -120 194 -9 1 4 7 29 14 78 23 75 26 163 -163z m-605
-32 c-17 -38 -34 -70 -37 -70 -3 0 -15 7 -26 15 -18 15 -17 17 35 70 30 30 55
55 57 55 1 0 -12 -31 -29 -70z m847 -54 c-11 -9 -22 -15 -25 -16 -3 0 -20 33
-38 73 l-33 72 58 -57 c55 -56 57 -58 38 -72z m-421 -85 c14 -32 26 -61 26
-65 0 -3 -27 -6 -60 -6 -33 0 -60 2 -60 4 0 13 54 126 60 126 4 0 19 -26 34
-59z m-566 -42 l41 -30 -33 -72 c-151 -330 -359 -774 -366 -780 -4 -5 -25 0
-46 11 l-38 20 3 206 c2 181 1 210 -14 233 l-17 26 208 208 c115 115 211 209
214 209 4 0 25 -14 48 -31z m1326 -178 l208 -208 -17 -26 c-15 -23 -16 -51
-13 -225 l3 -199 -39 -23 c-21 -12 -42 -18 -46 -13 -4 4 -87 179 -185 388 -98
209 -186 397 -196 417 l-19 37 42 30 c23 17 44 31 48 31 3 0 99 -94 214 -209z
m-1105 58 c17 -6 31 -12 31 -14 0 -5 -390 -848 -394 -852 -6 -7 -76 25 -76 34
0 5 72 164 161 353 88 190 176 378 194 418 19 39 38 72 43 72 5 0 23 -5 41
-11z m869 -402 c105 -226 192 -417 192 -422 0 -11 -68 -40 -75 -33 -3 2 -92
193 -200 424 l-195 419 28 12 c15 7 34 12 42 12 10 1 78 -135 208 -412z m-638
33 l0 -320 -104 0 c-90 0 -107 -3 -136 -23 -51 -33 -71 -76 -77 -162 -7 -84 1
-80 -95 -51 l-36 11 184 400 c102 220 191 415 199 433 11 24 20 32 39 32 l26
0 0 -320z m411 -110 c109 -234 198 -428 199 -431 0 -3 -29 -12 -64 -20 l-63
-16 -6 74 c-6 84 -27 127 -77 160 -29 20 -46 23 -136 23 l-104 0 0 321 0 320
27 -3 c25 -3 41 -33 224 -428z m-1451 75 l0 -45 -245 0 -245 0 0 45 0 45 245
0 245 0 0 -45z m2730 0 l0 -45 -245 0 -245 0 0 45 0 45 245 0 245 0 0 -45z
m-2730 -222 c0 -45 -44 -127 -86 -162 -146 -121 -364 -38 -398 152 l-7 37 246
0 245 0 0 -27z m2724 -10 c-34 -190 -252 -273 -398 -152 -42 35 -86 117 -86
162 l0 27 245 0 246 0 -7 -37z m-1356 -245 l-3 -43 -245 0 -245 0 -3 43 -3 42
251 0 251 0 -3 -42z m-1022 -113 c22 -9 34 -20 31 -27 -3 -7 -94 -205 -202
-441 l-197 -427 -49 0 c-27 0 -49 2 -49 5 0 5 382 829 406 878 17 32 15 31 60
12z m1563 -472 c105 -226 191 -414 191 -417 0 -3 -439 -6 -975 -6 -536 0 -975
3 -975 7 0 8 369 815 376 822 8 9 196 -41 198 -53 2 -6 9 -33 15 -61 37 -155
159 -268 319 -296 150 -27 312 47 395 178 25 39 54 119 59 163 3 23 12 27 103
51 55 14 101 26 101 25 1 -1 88 -186 193 -413z m-550 342 c-11 -58 -29 -93
-71 -131 -54 -52 -96 -68 -168 -68 -72 0 -114 16 -168 68 -42 38 -60 73 -71
131 l-8 45 247 0 247 0 -8 -45z"/>
</g>
</svg>
