<?xml version="1.0" standalone="no"?>
<!DOCTYPE svg PUBLIC "-//W3C//DTD SVG 20010904//EN"
 "http://www.w3.org/TR/2001/REC-SVG-20010904/DTD/svg10.dtd">
<svg version="1.0" xmlns="http://www.w3.org/2000/svg"
 width="512.000000pt" height="512.000000pt" viewBox="0 0 512.000000 512.000000"
 preserveAspectRatio="xMidYMid meet">

<g transform="translate(0.000000,512.000000) scale(0.100000,-0.100000)"
fill="#fbd42c" stroke="none">
<path d="M2349 5105 c-270 -33 -511 -124 -755 -286 -154 -102 -353 -303 -457
-459 -174 -263 -262 -517 -289 -835 -10 -121 -9 -156 5 -257 10 -64 31 -163
48 -220 116 -392 426 -951 825 -1488 241 -326 285 -371 395 -406 30 -9 56 -18
58 -20 3 -3 -28 -103 -61 -191 l-19 -53 -50 0 c-44 0 -55 -5 -92 -39 l-42 -40
-3 -114 -4 -114 78 -204 c84 -222 112 -273 177 -317 82 -57 113 -62 397 -62
279 0 310 4 392 56 62 40 98 102 180 317 l77 202 1 103 c0 114 -9 143 -60 186
-25 20 -42 26 -80 26 l-49 0 -19 53 c-33 88 -64 188 -61 191 2 2 28 11 58 20
110 35 153 79 396 406 316 426 603 912 743 1260 146 363 172 601 102 938 -90
431 -361 826 -740 1079 -329 220 -746 317 -1151 268z m295 -135 c139 -128 255
-540 308 -1085 19 -202 16 -725 -5 -925 -37 -339 -110 -807 -187 -1200 -34
-172 -98 -475 -106 -502 -5 -15 -18 -18 -94 -18 -76 0 -89 3 -94 17 -3 10 -21
92 -40 183 -126 593 -207 1088 -258 1570 -17 159 -17 700 0 875 52 545 169
957 308 1085 36 33 51 40 84 40 33 0 48 -7 84 -40z m-334 -50 c-105 -178 -190
-509 -235 -910 -50 -457 -41 -841 31 -1380 46 -341 144 -892 220 -1229 18 -85
34 -156 34 -158 0 -2 -23 -3 -52 -1 l-52 3 -78 140 c-260 467 -508 1040 -624
1442 -105 366 -122 569 -78 898 72 529 338 984 689 1181 60 33 166 76 173 69
2 -1 -11 -26 -28 -55z m578 19 c453 -204 772 -821 775 -1504 1 -179 -8 -254
-59 -465 -105 -430 -363 -1047 -662 -1585 l-78 -140 -53 -3 -53 -3 6 27 c46
180 148 710 200 1034 98 605 127 984 107 1365 -30 553 -110 956 -240 1210 -25
50 -48 94 -50 99 -5 11 30 0 107 -35z m-991 -100 c-219 -195 -417 -567 -496
-929 -52 -242 -66 -533 -35 -739 41 -281 172 -682 367 -1126 66 -151 267 -558
341 -692 26 -46 44 -83 40 -83 -33 0 -177 175 -387 470 -415 583 -698 1140
-762 1504 -14 75 -16 129 -12 230 12 299 104 575 278 836 77 117 289 332 404
410 76 52 290 169 309 170 6 0 -16 -23 -47 -51z m1403 -10 c430 -222 744 -640
841 -1117 30 -147 36 -347 14 -468 -56 -320 -277 -782 -618 -1294 -247 -370
-489 -680 -532 -680 -2 0 18 42 46 93 364 668 639 1376 703 1808 18 123 21
346 5 487 -48 450 -233 875 -495 1139 -50 51 -90 93 -87 93 3 0 58 -27 123
-61z m-439 -3804 c21 -60 39 -116 39 -122 0 -10 -75 -13 -340 -13 -265 0 -340
3 -340 13 0 6 16 57 35 112 20 55 38 106 40 113 4 10 62 12 266 10 l261 -3 39
-110z m227 -247 c7 -7 12 -38 12 -70 l0 -58 -540 0 -540 0 0 58 c0 32 5 63 12
70 17 17 1039 17 1056 0z m-13 -255 c-3 -10 -31 -83 -62 -163 -62 -164 -84
-199 -146 -229 -41 -20 -59 -21 -307 -21 -362 0 -358 -3 -453 250 -31 80 -59
153 -62 163 -7 16 22 17 515 17 493 0 522 -1 515 -17z"/>
</g>
</svg>
