<?xml version="1.0" standalone="no"?>
<!DOCTYPE svg PUBLIC "-//W3C//DTD SVG 20010904//EN"
 "http://www.w3.org/TR/2001/REC-SVG-20010904/DTD/svg10.dtd">
<svg version="1.0" xmlns="http://www.w3.org/2000/svg"
 width="512.000000pt" height="512.000000pt" viewBox="0 0 512.000000 512.000000"
 preserveAspectRatio="xMidYMid meet">

<g transform="translate(0.000000,512.000000) scale(0.100000,-0.100000)"
fill="#fbd42c" stroke="none">
<path d="M445 4468 c-11 -6 -25 -19 -32 -27 -10 -12 -12 -396 -13 -1721 0
-1500 2 -1708 15 -1727 22 -31 161 -74 330 -103 105 -17 359 -39 710 -60 187
-11 347 -22 355 -24 8 -2 -342 -4 -777 -5 l-793 -1 0 1655 0 1656 -25 24 c-15
16 -36 25 -55 25 -19 0 -40 -9 -55 -25 l-25 -24 0 -1711 0 -1711 25 -24 24
-25 2431 0 2431 0 24 25 25 24 0 1711 0 1711 -25 24 c-15 16 -36 25 -55 25
-19 0 -40 -9 -55 -25 l-25 -24 0 -1656 0 -1655 -797 0 c-438 0 -794 2 -792 4
2 2 94 9 204 16 230 13 228 13 385 117 140 93 263 196 390 330 130 136 224
266 290 403 28 58 58 116 66 130 37 62 73 150 83 205 8 40 11 428 11 1238 l0
1179 -29 29 c-34 33 -53 36 -106 13 -103 -43 -333 -75 -700 -99 -838 -54
-1023 -77 -1210 -148 -99 -37 -131 -37 -220 -3 -163 64 -439 102 -990 136
-555 34 -792 62 -919 111 -58 22 -73 23 -101 7z m220 -202 c117 -24 307 -45
560 -61 818 -53 1006 -75 1185 -141 l70 -26 0 -1594 c0 -877 -2 -1594 -3
-1594 -2 0 -30 9 -63 20 -152 53 -436 88 -959 120 -478 29 -659 48 -827 86
l-68 16 0 1599 c0 1520 1 1600 18 1595 9 -3 49 -12 87 -20z m3895 -1089 c0
-1222 2 -1182 -60 -1272 -75 -109 -280 -141 -513 -80 -78 20 -94 19 -121 -8
-22 -22 -23 -30 -29 -253 -7 -239 -20 -339 -57 -437 -23 -61 -69 -122 -98
-131 -9 -3 -91 -10 -182 -16 -368 -24 -663 -65 -794 -110 -33 -11 -61 -20 -63
-20 -1 0 -3 717 -3 1594 l0 1594 70 26 c179 66 365 88 1185 141 269 17 456 39
572 65 43 10 81 18 86 19 4 0 7 -500 7 -1112z m-400 -1542 c41 -3 104 -2 140
3 36 5 67 8 69 6 10 -9 -114 -177 -182 -246 -72 -75 -207 -191 -214 -184 -2 2
1 32 7 67 5 35 13 134 17 220 l6 156 41 -8 c23 -4 75 -10 116 -14z"/>
<path d="M746 3977 l-26 -26 0 -626 0 -627 29 -29 c16 -16 40 -29 52 -29 12 0
88 -7 168 -15 80 -8 297 -24 481 -35 355 -22 570 -41 712 -66 97 -16 128 -9
147 33 15 32 16 1246 1 1273 -15 29 -37 37 -136 54 -135 23 -355 44 -714 66
-179 11 -374 25 -435 30 -274 25 -250 26 -279 -3z m644 -182 c380 -24 512 -35
683 -57 l87 -11 0 -520 0 -520 -37 6 c-99 16 -359 38 -658 57 -181 11 -377 25
-435 30 -58 6 -115 10 -127 10 l-23 0 0 521 0 522 63 -7 c34 -3 235 -17 447
-31z"/>
<path d="M742 2295 c-12 -15 -22 -36 -22 -46 0 -32 22 -67 49 -78 34 -14 286
-36 691 -61 353 -22 566 -42 702 -65 99 -18 129 -10 148 36 15 36 6 75 -23 93
-50 33 -333 66 -827 96 -184 12 -382 25 -440 31 -266 25 -254 25 -278 -6z"/>
<path d="M742 1895 c-12 -15 -22 -36 -22 -46 0 -32 22 -67 49 -78 34 -14 286
-36 691 -61 353 -22 566 -42 702 -65 99 -18 129 -10 148 36 15 36 6 75 -23 93
-50 33 -333 66 -827 96 -184 12 -382 25 -440 31 -266 25 -254 25 -278 -6z"/>
<path d="M742 1495 c-12 -15 -22 -36 -22 -46 0 -32 22 -67 49 -78 34 -14 286
-36 691 -61 353 -22 566 -42 702 -65 99 -18 129 -10 148 36 15 36 6 75 -23 93
-50 33 -333 66 -827 96 -184 12 -382 25 -440 31 -266 25 -254 25 -278 -6z"/>
<path d="M4249 3996 c-5 -5 -342 -31 -669 -51 -421 -26 -700 -60 -747 -91 -45
-29 -39 -108 10 -132 22 -10 42 -10 114 2 142 24 355 44 713 66 395 24 645 47
681 61 48 19 62 79 28 123 -17 22 -28 26 -73 26 -29 0 -55 -2 -57 -4z"/>
<path d="M4249 3596 c-5 -5 -342 -31 -669 -51 -421 -26 -700 -60 -747 -91 -45
-29 -39 -108 10 -132 22 -10 42 -10 114 2 142 24 355 44 713 66 395 24 645 47
681 61 48 19 62 79 28 123 -17 22 -28 26 -73 26 -29 0 -55 -2 -57 -4z"/>
<path d="M4249 3196 c-5 -5 -342 -31 -669 -51 -421 -26 -700 -60 -747 -91 -45
-29 -39 -108 10 -132 22 -10 42 -10 114 2 142 24 355 44 713 66 395 24 645 47
681 61 48 19 62 79 28 123 -17 22 -28 26 -73 26 -29 0 -55 -2 -57 -4z"/>
<path d="M4249 2796 c-5 -5 -342 -31 -669 -51 -421 -26 -700 -60 -747 -91 -45
-29 -39 -108 10 -132 22 -10 42 -10 114 2 142 24 355 44 713 66 395 24 645 47
681 61 48 19 62 79 28 123 -17 22 -28 26 -73 26 -29 0 -55 -2 -57 -4z"/>
<path d="M4249 2396 c-5 -5 -342 -31 -669 -51 -391 -24 -692 -59 -742 -86 -9
-5 -22 -18 -28 -29 -14 -27 -14 -921 1 -953 20 -45 47 -48 186 -27 110 17 265
32 582 56 60 5 78 11 97 30 40 39 27 106 -22 125 -28 10 -348 -10 -561 -36
-67 -8 -124 -15 -127 -15 -3 0 -6 162 -6 360 0 281 3 360 13 360 6 0 65 7 129
15 111 14 266 25 793 60 127 8 256 18 288 21 l57 7 0 -111 c0 -134 12 -157 80
-157 32 0 47 6 61 24 17 21 19 41 19 193 0 166 0 169 -25 193 -19 20 -34 25
-73 25 -27 0 -51 -2 -53 -4z"/>
</g>
</svg>
