<?xml version="1.0" standalone="no"?>
<!DOCTYPE svg PUBLIC "-//W3C//DTD SVG 20010904//EN"
 "http://www.w3.org/TR/2001/REC-SVG-20010904/DTD/svg10.dtd">
<svg version="1.0" xmlns="http://www.w3.org/2000/svg"
 width="512.000000pt" height="512.000000pt" viewBox="0 0 512.000000 512.000000"
 preserveAspectRatio="xMidYMid meet">

<g transform="translate(0.000000,512.000000) scale(0.100000,-0.100000)"
fill="#fbd42c" stroke="none">
<path d="M289 4767 c-51 -27 -104 -91 -119 -145 -6 -25 -10 -550 -10 -1592 1
-1273 3 -1562 14 -1593 21 -57 62 -105 116 -132 l49 -25 816 0 c721 0 815 -2
815 -15 0 -8 -25 -116 -56 -240 l-56 -225 -122 0 c-144 -1 -201 -12 -240 -48
-45 -43 -56 -80 -56 -197 0 -119 10 -154 59 -200 l32 -30 1018 -3 1018 -2 33
22 c65 45 75 68 78 191 4 129 -6 173 -49 215 -41 40 -98 52 -249 52 l-119 0
-10 38 c-30 109 -101 409 -101 424 0 17 50 18 829 20 l829 3 43 30 c51 36 85
82 99 136 7 24 9 573 8 1606 l-3 1570 -30 48 c-17 27 -50 63 -74 80 l-43 30
-2237 3 -2238 2 -44 -23z m4490 -163 l21 -27 0 -1333 0 -1334 -2240 0 -2240 0
0 1334 0 1333 21 27 20 26 2199 0 2199 0 20 -26z m21 -2983 c0 -115 -2 -131
-21 -155 l-20 -26 -2199 0 -2199 0 -20 26 c-19 24 -21 40 -21 155 l0 129 2240
0 2240 0 0 -129z m-1824 -353 c4 -6 33 -114 64 -240 l58 -228 -538 0 -538 0
58 228 c31 126 60 234 64 240 10 17 822 17 832 0z m544 -710 l0 -78 -960 0
-960 0 0 78 0 77 960 0 960 0 0 -77z"/>
</g>
</svg>
